<?xml version="1.0" encoding="UTF-8" standalone="no"?>
<!-- Created with Inkscape (http://www.inkscape.org/) -->

<svg
   xmlns:dc="http://purl.org/dc/elements/1.1/"
   xmlns:cc="http://creativecommons.org/ns#"
   xmlns:rdf="http://www.w3.org/1999/02/22-rdf-syntax-ns#"
   xmlns:svg="http://www.w3.org/2000/svg"
   xmlns="http://www.w3.org/2000/svg"
   xmlns:sodipodi="http://sodipodi.sourceforge.net/DTD/sodipodi-0.dtd"
   xmlns:inkscape="http://www.inkscape.org/namespaces/inkscape"
   width="109.00098"
   height="53.00399"
   viewBox="0 0 28.839843 14.023972"
   version="1.1"
   id="svg7892"
   inkscape:version="0.92.0 r15299"
   sodipodi:docname="nbs.svg">
  <defs
     id="defs7886">
    <style
       id="style7894">.cls-2 { fill: #592d5e; }</style>
  </defs>
  <sodipodi:namedview
     id="base"
     pagecolor="#ffffff"
     bordercolor="#666666"
     borderopacity="1.0"
     inkscape:pageopacity="0.0"
     inkscape:pageshadow="2"
     inkscape:zoom="8.30548"
     inkscape:cx="54.000491"
     inkscape:cy="26.001997"
     inkscape:document-units="mm"
     inkscape:current-layer="layer1"
     showgrid="false"
     fit-margin-top="0"
     fit-margin-left="0"
     fit-margin-right="0"
     fit-margin-bottom="0"
     units="px"
     inkscape:window-width="1280"
     inkscape:window-height="744"
     inkscape:window-x="-4"
     inkscape:window-y="-4"
     inkscape:window-maximized="1" />
  <metadata
     id="metadata7889">
    <rdf:RDF>
      <cc:Work
         rdf:about="">
        <dc:format>image/svg+xml</dc:format>
        <dc:type
           rdf:resource="http://purl.org/dc/dcmitype/StillImage" />
        <dc:title></dc:title>
      </cc:Work>
    </rdf:RDF>
  </metadata>
  <g
     inkscape:label="Layer 1"
     inkscape:groupmode="layer"
     id="layer1"
     transform="translate(-322.11118,-258.86165)">
    <path
       class="cls-2"
       id="path-1"
       d="m 348.34408,264.70817 c 0,0.52123 0.51435,0.59002 1.10252,0.77259 0.72311,0.22357 1.37213,0.5416 1.37213,1.4433 0,0.92075 -0.6895,1.4769 -1.70339,1.4769 -0.47942,0 -1.06732,-0.12885 -1.51474,-0.37227 v -0.9017 c 0.49398,0.35296 1.11602,0.50853 1.52215,0.50853 0.48684,0 0.83767,-0.21087 0.83767,-0.6641 0,-0.54293 -0.51329,-0.61701 -1.14935,-0.80698 -0.68262,-0.20955 -1.32477,-0.52123 -1.32477,-1.39568 0,-0.88741 0.66252,-1.42266 1.64968,-1.42266 0.47361,0 1.04087,0.11509 1.45256,0.35904 v 0.86704 c -0.48604,-0.31803 -1.06097,-0.46038 -1.45944,-0.46038 -0.46037,0 -0.78475,0.18256 -0.78475,0.59611 z m -1.47769,2.15477 c 0,0.46037 -0.18918,0.87365 -0.64241,1.15094 -0.35084,0.21643 -0.81121,0.31221 -1.51342,0.31221 h -1.36657 v -4.90511 h 1.36578 c 0.64876,0 1.05436,0.0672 1.38588,0.26458 0.35825,0.20981 0.57362,0.5416 0.57362,0.98875 0,0.52916 -0.31035,0.85328 -0.73633,1.00277 v 0.0138 c 0.60139,0.14816 0.93292,0.56223 0.93292,1.1721 z m -1.35864,-2.55455 c -0.18971,-0.10848 -0.41857,-0.13653 -0.85196,-0.13653 h -0.45244 v 1.33535 h 0.76333 c 0.4736,0 0.84455,-0.20372 0.84455,-0.66357 0,-0.25823 -0.1143,-0.42757 -0.30348,-0.53578 z m -0.51382,1.81504 h -0.7911 v 1.44992 h 0.54768 c 0.50721,0 0.78423,-0.0537 0.9742,-0.17542 0.15531,-0.10134 0.2831,-0.2712 0.2831,-0.55563 0,-0.4736 -0.36512,-0.71861 -1.01388,-0.71861 z m -4.99454,-0.1614 c -0.28257,-0.40745 -0.54769,-0.79295 -0.81174,-1.18639 l -0.0127,0.007 c 0.0127,0.46091 0.0127,0.96203 0.0127,1.48431 v 2.059 h -0.77999 v -4.90511 h 0.76147 l 1.64835,2.36431 c 0.28258,0.4064 0.5469,0.79296 0.81121,1.18613 l 0.0124,-0.006 c -0.0124,-0.46117 -0.0124,-0.96308 -0.0124,-1.48431 v -2.05978 h 0.78476 v 4.90537 h -0.7665 l -1.64782,-2.36432 z m -9.6737,-0.0884 c 1.13348,-1.49172 2.92365,-2.45427 4.93925,-2.45427 v 4.90855 c -2.0156,0 -3.80577,-0.96309 -4.93925,-2.45428 z m -0.7874,-1.36313 c -0.30956,-0.73978 -0.48074,-1.55205 -0.48074,-2.40506 0,-1.13348 0.30268,-2.19604 0.83132,-3.1115 l 4.24127,2.45533 c -0.94906,1.64439 -2.62731,2.81252 -4.59185,3.06123 z m -6.16055,5.78697 c 0.94985,-1.64386 2.62784,-2.81252 4.5921,-3.06123 0.3101,0.7403 0.48102,1.55257 0.48102,2.40506 0,1.13374 -0.30216,2.19657 -0.8308,3.11203 l -4.24206,-2.45534 z m 0,-8.84846 4.24206,-2.45454 c 0.52864,0.91493 0.83079,1.97749 0.83079,3.1115 0,0.85248 -0.17065,1.66475 -0.48075,2.40453 -1.96426,-0.24871 -3.64251,-1.41684 -4.5921,-3.06123 z m 3.8055,4.42462 c -1.13401,1.49093 -2.92418,2.45428 -4.93977,2.45428 v -4.90855 c 2.01559,0 3.80576,0.96255 4.93977,2.45427 z m 6.94743,4.42384 -4.24233,2.45586 c -0.52785,-0.91546 -0.83079,-1.97829 -0.83079,-3.1115 0,-0.85302 0.17118,-1.66529 0.48101,-2.40559 1.96453,0.24871 3.64331,1.41737 4.59211,3.06123 z"
       inkscape:connector-curvature="0"
       style="fill:#592d5e;fill-rule:evenodd;stroke-width:0.26458332" />
  </g>
</svg>
